<svg width="16" height="16" fill="none" xmlns="http://www.w3.org/2000/svg"><path fill-rule="evenodd" clip-rule="evenodd" d="M8 0C3.58172 0 0 3.58172 0 8c0 4.4183 3.58172 8 8 8 4.4183 0 8-3.5817 8-8 0-4.41828-3.5817-8-8-8z" fill="#fff"/><path fill-rule="evenodd" clip-rule="evenodd" d="M10.9092 7.63633H8.72736V5.45451c0-.30124-.24421-.54545-.54545-.54545-.30125 0-.54546.24421-.54546.54545v2.18182H5.45463c-.30124 0-.54545.24421-.54545.54546 0 .30124.24421.54545.54545.54545h2.18182v2.18186c0 .3012.24421.5454.54546.5454.30124 0 .54545-.2442.54545-.5454V8.72724h2.18184c.3012 0 .5454-.24421.5454-.54545 0-.30125-.2442-.54546-.5454-.54546z" fill="#0DC39F"/></svg>